<svg xmlns="http://www.w3.org/2000/svg" version="1.1" xmlns:xlink="http://www.w3.org/1999/xlink" xmlns:svgjs="http://svgjs.dev/svgjs" width="128" height="128" viewBox="0 0 128 128"><g transform="matrix(0.8046875,0,0,0.8046875,12.760752631578946,21.22551347749618)"><svg viewBox="0 0 95 79" data-background-color="#ffffff" preserveAspectRatio="xMidYMid meet" height="106" width="128" xmlns="http://www.w3.org/2000/svg" xmlns:xlink="http://www.w3.org/1999/xlink"><g id="tight-bounds" transform="matrix(1,0,0,1,-0.24049999999999727,0.11674369990461742)"><svg viewBox="0 0 95.48099999999998 78.76651260019077" height="78.76651260019077" width="95.48099999999998"><g><svg viewBox="0 0 95.48099999999998 78.76651260019077" height="78.76651260019077" width="95.48099999999998"><g><svg viewBox="0 0 95.48099999999998 78.76651260019077" height="78.76651260019077" width="95.48099999999998"><g id="textblocktransform"><svg viewBox="0 0 95.48099999999998 78.76651260019077" height="78.76651260019077" width="95.48099999999998" id="textblock"><g><svg viewBox="0 0 95.48099999999998 78.76651260019077" height="78.76651260019077" width="95.48099999999998"><g><svg viewBox="0 0 95.48099999999998 78.76651260019077" height="78.76651260019077" width="95.48099999999998"><g><svg xmlns="http://www.w3.org/2000/svg" xmlns:xlink="http://www.w3.org/1999/xlink" version="1.1" x="0" y="0" viewBox="45.696 104.20599999999993 717.132 591.594" enable-background="new 0 0 800 800" xml:space="preserve" height="78.76651260019077" width="95.48099999999998" class="icon-icon-0" data-fill-palette-color="accent" id="icon-0"><g fill="#001f3f" data-fill-palette-color="accent"><g fill="#001f3f" data-fill-palette-color="accent"><path fill="#000000" d="M538.695 375.339c0 0-33.665 41.328 0 78.074C538.695 453.413 572.506 414.38 538.695 375.339zM534.289 413.563c0-2.452 1.987-4.439 4.44-4.439 2.452 0 4.44 1.987 4.44 4.439s-1.988 4.441-4.44 4.441C536.276 418.005 534.289 416.016 534.289 413.563z" data-fill-palette-color="accent"></path><path fill="#000000" d="M275.382 453.413c33.666-36.746 0-78.074 0-78.074C241.572 414.38 275.382 453.413 275.382 453.413zM279.628 413.563c0 2.452-1.988 4.441-4.441 4.441-2.452 0-4.439-1.989-4.439-4.441s1.987-4.439 4.439-4.439C277.64 409.124 279.628 411.111 279.628 413.563z" data-fill-palette-color="accent"></path><path fill="#000000" d="M762.828 579.627c0 0-29.031-16.39-101.275-28.073-0.125 0.567-0.25 3.134-0.378 3.7C698.999 561.063 734.864 568.941 762.828 579.627z" data-fill-palette-color="accent"></path><path fill="#000000" d="M179.743 602.721l1.189 3.789 11.68-3.355-1.43-1.633c47.098-12.889 107.95-26.138 185.29-37.359 0 0-91.5 13.932-183.86 38.992 5.332 5.919 10.932 11.61 16.786 17.061 0.78 6.266-0.358 11.604-2.493 16.942 3.079-2.053 7.078-5.942 11.172-9.202 49.333 42.175 114.596 67.844 186.17 67.844 56.014 0 108.163-15.724 151.837-42.772-1.881 11.987-8.281 20.497-15.651 29.976 27.507-6.877 45.846-41.262 59.599-63.038 2.292 4.586 3.438 11.461 4.585 18.338 0.884-14.148 7.229-24.888 14.294-35.898-93.783-24.117-187.536-36.886-187.536-36.886 79.045 10.201 141.966 20.782 189.643 33.162 1.738-2.695 2.505-3.418 4.229-6.223l-0.695 0.579c3.82-4.688 7.474-9.507 10.963-14.438-100.257-20.271-205.477-27.627-205.477-27.627 88.672 5.576 156.327 13.494 206.657 23.931 4.931-7.087 9.526-12.402 13.736-19.943-0.189 8.376-1.174 14.716-0.947 22.687 1.491 0.33 2.951 0.661 4.408 0.992 3.132-8.423 5.371-14.865 7.283-23.383-108.725-16.697-233.637-16.292-233.637-16.292 104.937-1.075 181.076 4.032 234.015 12.592 2.48-11.3 4.458-20.739 7.247-32.45 1.146 4.586 5.729 10.316 6.877 14.899 9.564-21.04 7.157-49.265 5.432-74.015 1.088-9.509 1.651-19.166 1.651-28.948 0-8.596-0.432-17.097-1.273-25.484 3.518 7.14 6.678 15.27 11.383 21.856 1.146-18.338-6.877-38.968-16.045-55.014l0.51 6.384c-6.422-30.49-18.352-59.089-34.762-84.817l0.002 0.002c51.139-83.487 48.308-181.989 48.021-189.313-65.751 20.303-115.445 104.993-115.445 104.993l-3.214-2.25c0 0 60.784-94.965 118.649-102.993-0.006-0.122-0.009-0.201-0.009-0.201-83.668 0-158.199 91.7-158.199 91.7l0.015 0.013c-12.922-6.377-26.438-11.815-40.443-16.23 0.518-5.332 3.015-10.333 5.517-15.333-13.332-0.667-25.629 2.803-37.695 7.2-2.069-0.398-4.149-0.773-6.235-1.127 13.974-16.764 27.756-31.396 46.509-43.899-32.351 11.764-80.416 17.243-109.791 40.092-13.746 0.647-27.23 2.24-40.381 4.715l1.444-0.963c-15.475-2.579-32.668-0.859-48.143-0.859 9.889 0.659 18.765 2.839 27.408 6.144-19.261 5.009-37.689 11.928-55.043 20.541l0.329-0.292c0 0-74.531-91.7-158.201-91.7 0 0-0.002 0.067-0.007 0.165 57.947 7.77 118.918 103.03 118.918 103.03l-3.213 2.25c0 0-49.829-84.92-115.713-105.076-0.268 6.683-3.307 105.605 48.018 189.396l0.589-0.524c-9.93 15.487-18.231 32.021-24.687 49.384l-0.02-3.959c-0.242 2.251-0.581 4.504-1.001 6.757-3.153 8.799-5.832 17.809-8.009 26.998-4.736 12.819-10.135 25.639-13.34 38.458-4.299 17.195-4.299 34.389-4.299 52.44 0.806-7.252 5.388-19.036 10.914-26.147 0.297 11.989 1.434 23.778 3.353 35.323-1.094 17.743-3.303 35.826 1.208 51.863 0-5.766 3.343-11.055 7.537-15.864 4.858 15.077 11.103 27.577 18.58 41.378 52.417-7.881 125.679-12.125 224.495-11.112 0 0-117.359-0.38-223.581 14.802 3.648 6.617 7.579 13.069 11.782 19.341l-9.274-11.593c1.657 5.634 3.897 9.17 6.428 14.667 50.833-10.992 120.13-19.628 212.036-25.656 0 0-109.325 7.941-211.232 29.396C171.051 588.2 175.564 594.406 179.743 602.721M543.775 374.69c0 0 52.338-4.075 75.874 28.43l6.944 7.243c0 0-56.002 89.541-161.97 12.751l-2.627-2.128C461.997 420.986 488.874 378.511 543.775 374.69zM350.336 423.114c-105.967 76.79-161.97-12.751-161.97-12.751l6.946-7.243c23.536-32.505 75.873-28.43 75.873-28.43 54.901 3.821 81.779 46.296 81.779 46.296L350.336 423.114zM502.921 606.21c0 0-77.359 39.793-97.768-11.211C384.744 646.003 304.9 606.21 304.9 606.21c82.995 32.356 97.268-26.675 99.147-56.952l0.567-15.826c-2.196-0.671-9.742-3.578-9.742-10.315 0-9.169-12.896 2.291-12.896 2.291s-34.671 4.013-23.781-15.473c10.887-19.484 28.08-3.717 46.419-3.865 18.338 0.148 35.531-15.619 46.418 3.865 10.89 19.485-23.781 15.473-23.781 15.473s-12.895-11.46-12.895-2.291-9.742 10.315-9.742 10.315c0.272 0.051 0 0 0 0 0.867 0.202 0.717 0.219 0 0l0.766 15.784C407.257 579.493 422.952 636.033 502.921 606.21z" data-fill-palette-color="accent"></path><path fill="#000000" d="M650.462 589.019c1.003-2.228 1.909-4.457 2.771-6.686-1.223-0.269-2.446-0.535-3.671-0.8C649.699 584.072 649.972 586.572 650.462 589.019z" data-fill-palette-color="accent"></path><path fill="#000000" d="M636.694 574.901c-0.394 0.566-0.782 3.135-1.181 3.696 4.697 0.95 9.383 1.929 14.048 2.936-0.034-0.627-0.061-3.257-0.078-3.889C645.351 576.728 641.089 575.813 636.694 574.901z" data-fill-palette-color="accent"></path><path fill="#000000" d="M761.467 615.994c0 0-30.12-19.768-107.575-37.357-0.21 0.565-0.44 3.131-0.659 3.696C693.707 591.228 732.273 602.321 761.467 615.994z" data-fill-palette-color="accent"></path><path fill="#000000" d="M757.831 652.114c0 0-36.049-27.268-136.814-53.435-0.372 0.576-1.738 3.149-2.106 3.724C670.369 615.635 721.838 632.284 757.831 652.114z" data-fill-palette-color="accent"></path><path fill="#000000" d="M45.696 579.627c30.432-11.628 70.222-19.932 111.709-25.863-0.309-0.561-0.61-3.125-0.914-3.689C77.28 561.982 45.696 579.627 45.696 579.627z" data-fill-palette-color="accent"></path><path fill="#000000" d="M47.125 616.445c31.998-15.093 75.293-27.111 120.02-36.527-0.274-0.579-0.537-3.159-0.804-3.739C80.215 594.801 47.125 616.445 47.125 616.445z" data-fill-palette-color="accent"></path><path fill="#000000" d="M179.743 602.721c-93.804 26.807-128.327 53.163-128.327 53.163 33.605-19.21 92.982-39.133 141.196-52.729" data-fill-palette-color="accent"></path></g></g></svg></g></svg></g></svg></g></svg></g></svg></g></svg></g><defs></defs></svg><rect width="95.48099999999998" height="78.76651260019077" fill="none" stroke="none" visibility="hidden"></rect></g></svg></g></svg>