<svg xmlns="http://www.w3.org/2000/svg" version="1.1" xmlns:xlink="http://www.w3.org/1999/xlink" xmlns:svgjs="http://svgjs.dev/svgjs" width="1500" height="1500" viewBox="0 0 1500 1500"><rect width="1500" height="1500" fill="#ffffff"></rect><g transform="matrix(0.6666666666666666,0,0,0.6666666666666666,249.39412117189602,688.6509774454664)"><svg viewBox="0 0 396 49" data-background-color="#ffffff" preserveAspectRatio="xMidYMid meet" height="185" width="1500" xmlns="http://www.w3.org/2000/svg" xmlns:xlink="http://www.w3.org/1999/xlink"><g id="tight-bounds" transform="matrix(1,0,0,1,0.23992801592919477,-0.12619914725283365)"><svg viewBox="0 0 395.52 49.25239829450567" height="49.25239829450567" width="395.52"><g><svg viewBox="0 0 478.3214922615823 59.56331070411044" height="49.25239829450567" width="395.52"><g transform="matrix(1,0,0,1,82.8014922615823,7.33407383368268)"><svg viewBox="0 0 395.52 44.89516303674508" height="44.89516303674508" width="395.52"><g id="textblocktransform"><svg viewBox="0 0 395.52 44.89516303674508" height="44.89516303674508" width="395.52" id="textblock"><g><svg viewBox="0 0 395.52 44.89516303674508" height="44.89516303674508" width="395.52"><g transform="matrix(1,0,0,1,0,0)"><svg width="395.52" viewBox="2.55 -34.55 311.70686278684184 35.199999999999996" height="44.89516303674508" data-palette-color="#001f3f"><g transform="matrix(1,0,0,1,0,0)"><g><svg width="4.729057991776184" viewBox="3.16 -36.36 28.68 36.36" height="5.996972611243111" data-palette-color="#001f3f" id="scriptelement" x="306.0319637909538" y="-31.688116305621552"><path d="M10.85 0L3.16 0 3.16-36.36 17.51-36.36Q21.63-36.36 24.55-34.9 27.47-33.43 29-30.76 30.54-28.09 30.54-24.49L30.54-24.49Q30.54-20.86 28.98-18.26 27.41-15.66 24.46-14.28 21.5-12.89 17.31-12.89L17.31-12.89 7.71-12.89 7.71-19.07 16.07-19.07Q18.27-19.07 19.73-19.67 21.18-20.28 21.9-21.48 22.62-22.69 22.62-24.49L22.62-24.49Q22.62-26.3 21.9-27.54 21.18-28.78 19.72-29.43 18.25-30.08 16.03-30.08L16.03-30.08 10.85-30.08 10.85 0ZM14.51-16.55L22.8-16.55 31.84 0 23.35 0 14.51-16.55Z" opacity="1" transform="matrix(1,0,0,1,0,0)" fill="#001f3f" class="undefined-123" data-fill-palette-color="primary" id="yy-123"></path></svg></g></g><path d="M302.536-28.69C302.536-31.926 305.16-34.55 308.396-34.55 311.633-34.55 314.257-31.926 314.257-28.69 314.257-25.453 311.633-22.829 308.396-22.829 305.16-22.829 302.536-25.453 302.536-28.69ZM308.396-23.382C311.328-23.382 313.704-25.758 313.704-28.69 313.704-31.621 311.328-33.997 308.396-33.997 305.465-33.997 303.089-31.621 303.089-28.69 303.089-25.758 305.465-23.382 308.396-23.382Z" fill="#001f3f" id="scriptcircle" data-fill-palette-color="primary"></path><path d="M31.05-33.15L30.35-29.3Q28.15-29.75 25.68-30.15 23.2-30.55 19.95-30.65L19.95-30.65Q16.65-30.6 14.25-29.65 11.85-28.7 10.33-26.93 8.8-25.15 8.05-22.7 7.3-20.25 7.3-17.3L7.3-17.3Q7.3-13.5 8.28-10.8 9.25-8.1 10.98-6.38 12.7-4.65 15-3.85 17.3-3.05 19.95-3.05L19.95-3.05Q21.65-3.05 23.03-3.25 24.4-3.45 25.43-3.73 26.45-4 27.3-4.35L27.3-4.35 27.3-13.5 21.05-13.5 21.05-17.25 31.55-17.25 31.55-2.3Q29.8-1.15 26.73-0.23 23.65 0.7 19.95 0.65L19.95 0.65Q16.55 0.65 13.43-0.15 10.3-0.95 7.88-2.98 5.45-5 4-8.5 2.55-12 2.55-17.35L2.55-17.35Q2.55-21.7 3.9-24.93 5.25-28.15 7.58-30.28 9.9-32.4 12.98-33.48 16.05-34.55 19.5-34.55L19.5-34.55Q21.75-34.55 23.85-34.33 25.95-34.1 27.7-33.83 29.45-33.55 31.05-33.15L31.05-33.15ZM37.15-17.05L37.15-17.05Q37.15-21.9 38.67-25.25 40.2-28.6 42.57-30.65 44.95-32.7 47.87-33.63 50.8-34.55 53.6-34.55L53.6-34.55Q56.4-34.55 59.32-33.77 62.25-33 64.62-31.03 67-29.05 68.52-25.65 70.05-22.25 70.05-17L70.05-17Q70.05-12.1 68.52-8.75 67-5.4 64.62-3.3 62.25-1.2 59.32-0.28 56.4 0.65 53.6 0.65L53.6 0.65Q50.8 0.65 47.87-0.25 44.95-1.15 42.57-3.2 40.2-5.25 38.67-8.65 37.15-12.05 37.15-17.05ZM65.3-16.8L65.3-16.8Q65.3-23.55 62.17-27.05 59.05-30.55 53.8-30.55L53.8-30.55Q51.15-30.55 48.97-29.73 46.8-28.9 45.22-27.25 43.65-25.6 42.77-23.13 41.9-20.65 41.9-17.3L41.9-17.3Q41.9-10.55 45.02-6.95 48.15-3.35 53.4-3.35L53.4-3.35Q56-3.35 58.2-4.17 60.4-5 61.97-6.7 63.55-8.4 64.42-10.9 65.3-13.4 65.3-16.8ZM83.19 0L83.19-30.2 72.49-30.2 72.49-34.1 98.09-34.1 98.09-30.2 87.39-30.2 87.39 0 83.19 0ZM103.34 0L103.34-34.1 111.74-34.1Q114.49-34.1 116.77-33.63 119.04-33.15 120.64-32.02 122.24-30.9 123.09-29.05 123.94-27.2 123.94-24.4L123.94-24.4Q123.89-21.3 122.89-19.38 121.89-17.45 120.44-16.28 118.99-15.1 117.09-14.55L117.09-14.55 117.09-14.45Q117.29-14.25 117.72-13.73 118.14-13.2 118.44-12.8L118.44-12.8 128.09 0 123.14 0 113.24-13.55 107.54-13.55 107.54 0 103.34 0ZM119.69-23.7L119.69-23.7Q119.69-25.8 119.17-27.13 118.64-28.45 117.62-29.15 116.59-29.85 115.09-30.1 113.59-30.35 111.69-30.35L111.69-30.35 107.54-30.35 107.54-17.3 112.49-17.3Q114.44-17.3 115.79-17.8 117.14-18.3 117.99-19.18 118.84-20.05 119.24-21.2 119.64-22.35 119.69-23.7ZM131.79-34.1L135.99-34.1 135.99-12.8Q135.99-9.95 136.81-8.13 137.64-6.3 138.99-5.25 140.34-4.2 142.06-3.8 143.79-3.4 145.59-3.4L145.59-3.4Q147.39-3.4 149.09-3.8 150.79-4.2 152.14-5.25 153.49-6.3 154.29-8.13 155.09-9.95 155.09-12.8L155.09-12.8 155.09-34.1 159.29-34.1 159.29-11.75Q159.29-9.15 158.31-6.9 157.34-4.65 155.54-2.98 153.74-1.3 151.19-0.35 148.64 0.6 145.54 0.6L145.54 0.6Q138.89 0.6 135.34-2.63 131.79-5.85 131.79-11.75L131.79-11.75 131.79-34.1ZM185.99-33.45L185.29-29.4Q184.09-29.7 182.79-29.95L182.79-29.95Q181.64-30.2 180.16-30.38 178.69-30.55 177.09-30.55L177.09-30.55Q173.39-30.55 171.79-29.43 170.19-28.3 170.19-25.95L170.19-25.95Q170.24-24.1 171.54-22.83 172.84-21.55 174.79-20.48 176.74-19.4 179.06-18.38 181.39-17.35 183.34-16.03 185.29-14.7 186.61-12.93 187.94-11.15 187.94-8.6L187.94-8.6Q187.94-5.65 186.66-3.85 185.39-2.05 183.44-1.05 181.49-0.05 179.16 0.3 176.84 0.65 174.74 0.65L174.74 0.65Q172.74 0.65 171.09 0.4 169.44 0.15 168.24-0.15L168.24-0.15Q166.84-0.5 165.69-0.95L165.69-0.95 166.69-5Q167.84-4.5 169.14-4.15L169.14-4.15Q170.29-3.85 171.71-3.6 173.14-3.35 174.74-3.35L174.74-3.35Q176.69-3.35 178.31-3.6 179.94-3.85 181.14-4.4 182.34-4.95 183.01-5.85 183.69-6.75 183.69-8.05L183.69-8.05Q183.64-10 182.41-11.23 181.19-12.45 179.16-13.58 177.14-14.7 174.81-15.75 172.49-16.8 170.54-18.15 168.59-19.5 167.26-21.35 165.94-23.2 165.94-25.95L165.94-25.95Q165.94-27.55 166.49-29.1 167.04-30.65 168.36-31.85 169.69-33.05 171.81-33.8 173.94-34.55 177.09-34.55L177.09-34.55Q178.89-34.55 180.51-34.38 182.14-34.2 183.34-34L183.34-34Q184.74-33.75 185.99-33.45L185.99-33.45ZM201.29 0L201.29-30.2 190.59-30.2 190.59-34.1 216.19-34.1 216.19-30.2 205.49-30.2 205.49 0 201.29 0ZM244.43-33L243.53-29.3Q242.28-29.7 240.88-30.03 239.48-30.35 237.81-30.58 236.13-30.8 234.28-30.8L234.28-30.8Q231.28-30.8 229.18-29.5 227.08-28.2 225.76-26.18 224.43-24.15 223.83-21.65 223.23-19.15 223.23-16.7L223.23-16.7Q223.23-13.6 224.11-11.08 224.98-8.55 226.51-6.78 228.03-5 230.06-4.05 232.08-3.1 234.33-3.1L234.33-3.1Q236.43-3.1 238.18-3.33 239.93-3.55 241.18-3.8L241.18-3.8Q242.63-4.1 243.78-4.5L243.78-4.5 244.63-0.95Q243.28-0.5 241.63-0.15L241.63-0.15Q240.23 0.15 238.38 0.4 236.53 0.65 234.33 0.65L234.33 0.65Q230.38 0.65 227.41-0.65 224.43-1.95 222.46-4.28 220.48-6.6 219.48-9.78 218.48-12.95 218.48-16.75L218.48-16.75Q218.48-21.1 219.68-24.43 220.88-27.75 222.98-30 225.08-32.25 227.98-33.4 230.88-34.55 234.33-34.55L234.33-34.55Q236.43-34.55 238.26-34.33 240.08-34.1 241.61-33.75 243.13-33.4 244.43-33L244.43-33ZM247.23 0L258.93-34.1 264.13-34.1 275.83 0 271.48 0 268.48-9.1 254.63-9.1 251.58 0 247.23 0ZM255.93-13.1L267.13-13.1 261.63-30.1 261.48-30.1 255.93-13.1ZM285.93 0L285.93-30.2 275.23-30.2 275.23-34.1 300.83-34.1 300.83-30.2 290.13-30.2 290.13 0 285.93 0Z" opacity="1" transform="matrix(1,0,0,1,0,0)" fill="#001f3f" class="wordmark-text-0" data-fill-palette-color="primary" id="text-0"></path></svg></g></svg></g></svg></g></svg></g><g><svg viewBox="0 0 72.20282175251967 59.56331070411044" height="59.56331070411044" width="72.20282175251967"><g><svg xmlns="http://www.w3.org/2000/svg" xmlns:xlink="http://www.w3.org/1999/xlink" version="1.1" x="0" y="0" viewBox="45.696 104.20599999999993 717.132 591.594" enable-background="new 0 0 800 800" xml:space="preserve" height="59.56331070411044" width="72.20282175251967" class="icon-icon-0" data-fill-palette-color="accent" id="icon-0"><g fill="#001f3f" data-fill-palette-color="accent"><g fill="#001f3f" data-fill-palette-color="accent"><path fill="#001f3f" d="M538.695 375.339c0 0-33.665 41.328 0 78.074C538.695 453.413 572.506 414.38 538.695 375.339zM534.289 413.563c0-2.452 1.987-4.439 4.44-4.439 2.452 0 4.44 1.987 4.44 4.439s-1.988 4.441-4.44 4.441C536.276 418.005 534.289 416.016 534.289 413.563z" data-fill-palette-color="accent"></path><path fill="#001f3f" d="M275.382 453.413c33.666-36.746 0-78.074 0-78.074C241.572 414.38 275.382 453.413 275.382 453.413zM279.628 413.563c0 2.452-1.988 4.441-4.441 4.441-2.452 0-4.439-1.989-4.439-4.441s1.987-4.439 4.439-4.439C277.64 409.124 279.628 411.111 279.628 413.563z" data-fill-palette-color="accent"></path><path fill="#001f3f" d="M762.828 579.627c0 0-29.031-16.39-101.275-28.073-0.125 0.567-0.25 3.134-0.378 3.7C698.999 561.063 734.864 568.941 762.828 579.627z" data-fill-palette-color="accent"></path><path fill="#001f3f" d="M179.743 602.721l1.189 3.789 11.68-3.355-1.43-1.633c47.098-12.889 107.95-26.138 185.29-37.359 0 0-91.5 13.932-183.86 38.992 5.332 5.919 10.932 11.61 16.786 17.061 0.78 6.266-0.358 11.604-2.493 16.942 3.079-2.053 7.078-5.942 11.172-9.202 49.333 42.175 114.596 67.844 186.17 67.844 56.014 0 108.163-15.724 151.837-42.772-1.881 11.987-8.281 20.497-15.651 29.976 27.507-6.877 45.846-41.262 59.599-63.038 2.292 4.586 3.438 11.461 4.585 18.338 0.884-14.148 7.229-24.888 14.294-35.898-93.783-24.117-187.536-36.886-187.536-36.886 79.045 10.201 141.966 20.782 189.643 33.162 1.738-2.695 2.505-3.418 4.229-6.223l-0.695 0.579c3.82-4.688 7.474-9.507 10.963-14.438-100.257-20.271-205.477-27.627-205.477-27.627 88.672 5.576 156.327 13.494 206.657 23.931 4.931-7.087 9.526-12.402 13.736-19.943-0.189 8.376-1.174 14.716-0.947 22.687 1.491 0.33 2.951 0.661 4.408 0.992 3.132-8.423 5.371-14.865 7.283-23.383-108.725-16.697-233.637-16.292-233.637-16.292 104.937-1.075 181.076 4.032 234.015 12.592 2.48-11.3 4.458-20.739 7.247-32.45 1.146 4.586 5.729 10.316 6.877 14.899 9.564-21.04 7.157-49.265 5.432-74.015 1.088-9.509 1.651-19.166 1.651-28.948 0-8.596-0.432-17.097-1.273-25.484 3.518 7.14 6.678 15.27 11.383 21.856 1.146-18.338-6.877-38.968-16.045-55.014l0.51 6.384c-6.422-30.49-18.352-59.089-34.762-84.817l0.002 0.002c51.139-83.487 48.308-181.989 48.021-189.313-65.751 20.303-115.445 104.993-115.445 104.993l-3.214-2.25c0 0 60.784-94.965 118.649-102.993-0.006-0.122-0.009-0.201-0.009-0.201-83.668 0-158.199 91.7-158.199 91.7l0.015 0.013c-12.922-6.377-26.438-11.815-40.443-16.23 0.518-5.332 3.015-10.333 5.517-15.333-13.332-0.667-25.629 2.803-37.695 7.2-2.069-0.398-4.149-0.773-6.235-1.127 13.974-16.764 27.756-31.396 46.509-43.899-32.351 11.764-80.416 17.243-109.791 40.092-13.746 0.647-27.23 2.24-40.381 4.715l1.444-0.963c-15.475-2.579-32.668-0.859-48.143-0.859 9.889 0.659 18.765 2.839 27.408 6.144-19.261 5.009-37.689 11.928-55.043 20.541l0.329-0.292c0 0-74.531-91.7-158.201-91.7 0 0-0.002 0.067-0.007 0.165 57.947 7.77 118.918 103.03 118.918 103.03l-3.213 2.25c0 0-49.829-84.92-115.713-105.076-0.268 6.683-3.307 105.605 48.018 189.396l0.589-0.524c-9.93 15.487-18.231 32.021-24.687 49.384l-0.02-3.959c-0.242 2.251-0.581 4.504-1.001 6.757-3.153 8.799-5.832 17.809-8.009 26.998-4.736 12.819-10.135 25.639-13.34 38.458-4.299 17.195-4.299 34.389-4.299 52.44 0.806-7.252 5.388-19.036 10.914-26.147 0.297 11.989 1.434 23.778 3.353 35.323-1.094 17.743-3.303 35.826 1.208 51.863 0-5.766 3.343-11.055 7.537-15.864 4.858 15.077 11.103 27.577 18.58 41.378 52.417-7.881 125.679-12.125 224.495-11.112 0 0-117.359-0.38-223.581 14.802 3.648 6.617 7.579 13.069 11.782 19.341l-9.274-11.593c1.657 5.634 3.897 9.17 6.428 14.667 50.833-10.992 120.13-19.628 212.036-25.656 0 0-109.325 7.941-211.232 29.396C171.051 588.2 175.564 594.406 179.743 602.721M543.775 374.69c0 0 52.338-4.075 75.874 28.43l6.944 7.243c0 0-56.002 89.541-161.97 12.751l-2.627-2.128C461.997 420.986 488.874 378.511 543.775 374.69zM350.336 423.114c-105.967 76.79-161.97-12.751-161.97-12.751l6.946-7.243c23.536-32.505 75.873-28.43 75.873-28.43 54.901 3.821 81.779 46.296 81.779 46.296L350.336 423.114zM502.921 606.21c0 0-77.359 39.793-97.768-11.211C384.744 646.003 304.9 606.21 304.9 606.21c82.995 32.356 97.268-26.675 99.147-56.952l0.567-15.826c-2.196-0.671-9.742-3.578-9.742-10.315 0-9.169-12.896 2.291-12.896 2.291s-34.671 4.013-23.781-15.473c10.887-19.484 28.08-3.717 46.419-3.865 18.338 0.148 35.531-15.619 46.418 3.865 10.89 19.485-23.781 15.473-23.781 15.473s-12.895-11.46-12.895-2.291-9.742 10.315-9.742 10.315c0.272 0.051 0 0 0 0 0.867 0.202 0.717 0.219 0 0l0.766 15.784C407.257 579.493 422.952 636.033 502.921 606.21z" data-fill-palette-color="accent"></path><path fill="#001f3f" d="M650.462 589.019c1.003-2.228 1.909-4.457 2.771-6.686-1.223-0.269-2.446-0.535-3.671-0.8C649.699 584.072 649.972 586.572 650.462 589.019z" data-fill-palette-color="accent"></path><path fill="#001f3f" d="M636.694 574.901c-0.394 0.566-0.782 3.135-1.181 3.696 4.697 0.95 9.383 1.929 14.048 2.936-0.034-0.627-0.061-3.257-0.078-3.889C645.351 576.728 641.089 575.813 636.694 574.901z" data-fill-palette-color="accent"></path><path fill="#001f3f" d="M761.467 615.994c0 0-30.12-19.768-107.575-37.357-0.21 0.565-0.44 3.131-0.659 3.696C693.707 591.228 732.273 602.321 761.467 615.994z" data-fill-palette-color="accent"></path><path fill="#001f3f" d="M757.831 652.114c0 0-36.049-27.268-136.814-53.435-0.372 0.576-1.738 3.149-2.106 3.724C670.369 615.635 721.838 632.284 757.831 652.114z" data-fill-palette-color="accent"></path><path fill="#001f3f" d="M45.696 579.627c30.432-11.628 70.222-19.932 111.709-25.863-0.309-0.561-0.61-3.125-0.914-3.689C77.28 561.982 45.696 579.627 45.696 579.627z" data-fill-palette-color="accent"></path><path fill="#001f3f" d="M47.125 616.445c31.998-15.093 75.293-27.111 120.02-36.527-0.274-0.579-0.537-3.159-0.804-3.739C80.215 594.801 47.125 616.445 47.125 616.445z" data-fill-palette-color="accent"></path><path fill="#001f3f" d="M179.743 602.721c-93.804 26.807-128.327 53.163-128.327 53.163 33.605-19.21 92.982-39.133 141.196-52.729" data-fill-palette-color="accent"></path></g></g></svg></g></svg></g></svg></g><defs></defs></svg><rect width="395.52" height="49.25239829450567" fill="none" stroke="none" visibility="hidden"></rect></g></svg></g></svg>